PathFileType	4	(X/Y/Z)	Kaydara	
DataRate	CameraRate	NumFrames	NumMarkers	Units	OrigDataRate	OrigDataStartFrame	OrigNumFrames	
240.00	240.00	4	72	mm	240.00	134	355	
Frame#	Time	Hips			RightUpLeg			RightLeg			RightFoot			RightFoot_End			LeftUpLeg			LeftLeg			LeftFoot			LeftFoot_End			Spine			Spine1			Spine2			Spine3			Neck			Head			Head_End			RightShoulder			RightArm			RightForeArm			RightHand			RightHandThumb1			RightHandThumb2			RightHandThumb3			RightHandThumb3_End			RightInHandIndex			RightHandIndex1			RightHandIndex2			RightHandIndex3			RightHandIndex3_End			RightInHandMiddle			RightHandMiddle1			RightHandMiddle2			RightHandMiddle3			RightHandMiddle3_End			RightInHandRing			RightHandRing1			RightHandRing2			RightHandRing3			RightHandRing3_End			RightInHandPinky			RightHandPinky1			RightHandPinky2			RightHandPinky3			RightHandPinky3_End			LeftShoulder			LeftArm			LeftForeArm			LeftHand			LeftHandThumb1			LeftHandThumb2			LeftHandThumb3			LeftHandThumb3_End			LeftInHandIndex			LeftHandIndex1			LeftHandIndex2			LeftHandIndex3			LeftHandIndex3_End			LeftInHandMiddle			LeftHandMiddle1			LeftHandMiddle2			LeftHandMiddle3			LeftHandMiddle3_End			LeftInHandRing			LeftHandRing1			LeftHandRing2			LeftHandRing3			LeftHandRing3_End			LeftInHandPinky			LeftHandPinky1			LeftHandPinky2			LeftHandPinky3			LeftHandPinky3_End			
		X1	Y1	Z1	X2	Y2	Z2	X3	Y3	Z3	X4	Y4	Z4	X5	Y5	Z5	X6	Y6	Z6	X7	Y7	Z7	X8	Y8	Z8	X9	Y9	Z9	X10	Y10	Z10	X11	Y11	Z11	X12	Y12	Z12	X13	Y13	Z13	X14	Y14	Z14	X15	Y15	Z15	X16	Y16	Z16	X17	Y17	Z17	X18	Y18	Z18	X19	Y19	Z19	X20	Y20	Z20	X21	Y21	Z21	X22	Y22	Z22	X23	Y23	Z23	X24	Y24	Z24	X25	Y25	Z25	X26	Y26	Z26	X27	Y27	Z27	X28	Y28	Z28	X29	Y29	Z29	X30	Y30	Z30	X31	Y31	Z31	X32	Y32	Z32	X33	Y33	Z33	X34	Y34	Z34	X35	Y35	Z35	X36	Y36	Z36	X37	Y37	Z37	X38	Y38	Z38	X39	Y39	Z39	X40	Y40	Z40	X41	Y41	Z41	X42	Y42	Z42	X43	Y43	Z43	X44	Y44	Z44	X45	Y45	Z45	X46	Y46	Z46	X47	Y47	Z47	X48	Y48	Z48	X49	Y49	Z49	X50	Y50	Z50	X51	Y51	Z51	X52	Y52	Z52	X53	Y53	Z53	X54	Y54	Z54	X55	Y55	Z55	X56	Y56	Z56	X57	Y57	Z57	X58	Y58	Z58	X59	Y59	Z59	X60	Y60	Z60	X61	Y61	Z61	X62	Y62	Z62	X63	Y63	Z63	X64	Y64	Z64	X65	Y65	Z65	X66	Y66	Z66	X67	Y67	Z67	X68	Y68	Z68	X69	Y69	Z69	X70	Y70	Z70	X71	Y71	Z71	X72	Y72	Z72	

134	0.554	921.0129	906.651	56.2195	986.2459469268927	886.1883834112688	-1.7276987976540834	906.8961278041056	483.5008354212662	-83.02337600674699	915.3732695388019	104.92834198515767	-166.0165835232475	840.7024863116367	28.37823855783725	-7.603924230428369	864.1283372642528	898.5136763569157	125.77848703928134	802.7104423836512	495.5967117096151	222.34204430250895	753.1860825391077	64.39563027295193	295.7473706164588	622.6708443706328	-12.976765708529754	179.63380730166358	881.5700670101802	1034.4852123345797	5.797651291203016	833.2478568213384	1102.667929638735	-43.20943753638971	778.0255485965739	1168.0175660467069	-96.50600426270253	718.3187017730452	1221.0128745534403	-151.2072030861431	653.9973903900508	1277.7166357498832	-208.9723254063697	594.222674066132	1329.1958967117669	-260.6485509799497	474.42570545454987	1422.2068666458388	-309.7654524902477	694.5967535233426	1258.2321676967113	-211.20905406313653	746.2690636473369	1247.2174388682874	-315.98061102676746	753.1596896116237	994.8295681025517	-298.9790327539954	787.4211469011796	805.682569637982	-372.4204340712111	792.8785083105219	799.953750734758	-386.6019591933823	783.879639120471	792.6319883888042	-399.4049598159838	777.709759150948	785.3152559501178	-407.3082879067483	772.6491113860296	777.3183002891388	-413.03062976510176	795.3431688813234	790.7397210073074	-384.30959003615004	800.8083774370716	762.8728536279408	-398.5647857768704	795.9770810337995	747.4223752690226	-408.2890360348597	787.7309096271767	743.9496662454014	-413.9458056635719	777.36929090889	745.2121003468625	-418.3656632445205	795.0061741625511	785.8648259341758	-381.04978920058113	800.1569562770452	756.0463566365344	-393.19069903368955	794.8120717354279	738.6388962620894	-403.32518281170115	784.828335820931	734.1862815791044	-409.92116324147884	773.4738098368514	735.4398070877152	-414.6460948967306	794.7180178093578	783.0717556988101	-378.38116607569293	799.3455564813177	753.7481107364175	-386.9400494617796	794.6032403209806	738.0633312135443	-395.26705181075044	784.9286678633464	733.496354698901	-401.3605404718286	774.2314789058432	734.5460514406053	-405.67576548228095	793.5233354261441	781.1331405992718	-374.90658614447227	797.3329081901405	752.831958071706	-380.613255845285	793.3840155847496	739.6011343487794	-386.45408350812835	786.2541005938513	735.9453578739161	-390.49858848766536	776.7359746012636	736.6884068117569	-394.0909141416415	655.6429984245991	1260.1787510863949	-166.96720827099992	602.5784564911687	1212.2635672825838	-73.53686017693784	698.5963687505889	1026.0087652518887	-188.71433902231527	812.5734606315647	858.9219768750323	-295.44361678524297	799.0772036813371	857.7685591286772	-314.5894889728214	794.1177333273998	841.8712890872183	-343.19827519037005	790.9687307612621	828.3592345030445	-362.8316551375459	788.6042650402641	815.0064512328538	-378.95125058121897	797.9192300974939	849.5252328781758	-314.58295148720384	781.0380034636885	823.4521923264565	-345.8961824337562	774.6973464393839	802.030822371326	-371.5562267908854	774.7849345628166	790.9261043976234	-387.439097828385	777.5755017988186	783.2274328609399	-400.53813843151323	799.5927411301942	843.6373150576646	-312.88880344921637	784.0309615071922	815.0226111332488	-342.51332292989053	777.3943668251181	790.9512215390982	-370.19325769555417	777.6355285148492	777.2196077223617	-389.2016604893109	780.7547891905729	768.6334032934138	-403.4596742485865	801.1495820107227	840.1549708353599	-310.8578741072646	788.3899542516623	811.5230454337286	-335.5421063192919	782.91917834203	789.8754793193823	-359.2943870079704	783.3184124156784	776.2761227966754	-377.4310676543323	786.330259424004	768.0351213075431	-390.74315522008646	803.8762757572326	836.801201405539	-307.88526292063864	793.6599407474384	808.504852567481	-328.5857318718594	789.8246424523267	790.2547033090096	-346.9153495156062	790.3797126190741	779.8923692514616	-359.8103797810956	793.1995771169248	772.3372834919033	-371.4105425431203
135	0.558	921.0129	906.651	56.2195	985.9344372541963	886.0551984372714	-1.8213746352580973	906.614498720876	483.33060269070575	-82.92531773796237	915.594649040625	104.88373298958457	-166.1202556299538	840.9240891960882	28.319459346192094	-7.714896836648141	864.4255054586274	898.6437416838116	125.87428485788605	803.066563444017	495.74034334797153	222.5185426916658	753.3242713824634	64.54626363494523	295.7292789479872	622.8753597771073	-12.893875942490046	179.59536169757175	881.6420185083925	1034.5036895875944	5.792660232474359	833.3294994459255	1102.7241261448573	-43.17025610456931	778.1108881597735	1168.1178411915791	-96.41103658941948	718.3958651028522	1221.1604562861476	-151.04288098629522	654.0642453632754	1277.9110880521832	-208.7343408227227	594.2793460216045	1329.4325197186254	-260.34081833170677	474.4484646273918	1422.4264464220444	-309.3860331591811	694.5744506818382	1258.3432881197402	-210.98855211406962	745.9479506579382	1247.1496122247486	-315.58682124702295	752.7823539288547	995.2559229963935	-298.2492492705183	786.9067674612882	807.2940123595644	-371.81421624962485	792.392030197147	801.7372616183874	-386.0203852612506	783.4230598405877	794.4732003095005	-398.8065901155025	777.2657870282999	787.1878860417904	-406.6961529026128	772.2086211706703	779.2095941770668	-412.40523372193445	794.827160135222	792.5192701625377	-383.72678737450445	800.2708844146077	764.826010244149	-397.99293156275627	795.4387660573731	749.433768252505	-407.7037080089686	787.2081928023208	745.9565989143043	-413.34134441624747	776.8703601624401	747.1879069585142	-417.73811880891907	794.4692474790822	787.6114691791532	-380.4599462785594	799.5877535182838	757.9445682201972	-392.60773514871926	794.2392970549383	740.5956742673142	-402.72652725170957	784.273101674059	736.1352962616699	-409.29894765045174	772.9439753539671	737.3535926863394	-413.9984003166009	794.1666649215965	784.7913387171711	-377.78628109586714	798.7521586459062	755.5818322645295	-386.34754923721994	794.0040531988313	739.9427724624577	-394.6598359697846	784.3449802951577	735.3654599826176	-400.73005675861043	773.6710013441736	736.3807084153059	-405.02106652715327	792.9575658460708	782.8116915146971	-374.30396239902745	796.718997160297	754.5920072849991	-380.0087371936601	792.7614775486613	741.3889513460699	-385.83617519648175	785.6409336617944	737.7213698019883	-389.8629286043546	776.1422460786156	738.4314467355957	-393.43334495501574	655.8111339495692	1260.4271938265624	-166.76390016492428	603.091433695698	1212.8648510663622	-73.35708770784014	698.945225505706	1025.7916874007767	-187.14759851194924	812.0308300423463	858.8862922772948	-293.4144942864724	798.5582236482405	857.8474135829866	-312.50106048619267	793.6034688458109	842.0104495808577	-340.9819586580327	790.4597923272291	828.5345124709467	-360.5213890599981	788.1015190713617	815.206834639747	-376.5584923667465	797.4128727541283	849.5991175416309	-312.4757589943214	780.5812150812261	823.6477523306212	-343.63340477827586	774.2584350553079	802.2814321434297	-369.16278431282325	774.3425116085689	791.1900179601685	-384.96817338741107	777.1203034186717	783.4882399479569	-398.0056411881287	799.08943551461	843.6896013835711	-310.7726749070478	783.5776582294923	815.1819054654609	-340.2406133524551	776.9608057328873	791.1673045033272	-367.77726559568373	777.1978287028595	777.4501580987527	-386.69186390433447	780.3031603735748	768.8597853738812	-400.8823327626854	800.6473702894178	840.1891839318722	-308.73958149590106	787.9340513276568	811.638312673863	-333.2820664513098	782.480628510227	790.0367183066712	-356.9089979378398	782.8759518509396	776.4494379981454	-374.9549427716987	785.8747447677563	768.2036314007786	-388.2034001660366	803.3723562038883	836.808797395559	-305.7676752230448	793.1981181837209	808.57138237363	-326.33906730918704	789.376740507298	790.3521796753186	-344.56818874446367	789.928967946875	779.9958280403151	-357.3969767227451	792.7372715244962	772.4348547640099	-368.94073710092266
136	0.563	921.0129	906.651	56.2195	985.6219008216996	885.9238525217294	-1.914665824045807	906.3489748639549	483.15998117025117	-82.82959989390405	915.8585479999397	104.84134892555396	-166.24270206049113	841.1949362422754	28.253359430069487	-7.845956099687692	864.7239834702032	898.7717924953473	125.96903347928489	803.4208312127952	495.88107884243806	222.68817954730426	753.4714359825033	64.6939134846631	295.7057683771353	623.0919874521221	-12.818586148290251	179.55084124355298	881.7128119570446	1034.522926494432	5.790590129634275	833.4082880271548	1102.7807279731571	-43.127074775102166	778.1914779154338	1168.2178200363128	-96.31111619022936	718.466397268633	1221.306500343129	-150.87282331574352	654.1225634336347	1278.1030238051865	-208.48954418639707	594.3291428653139	1329.6677067764401	-260.0265568004989	474.46626644094147	1422.6445850996251	-309.00439909650447	694.5429734729812	1258.4515488157463	-210.76207752226964	745.6261482695267	1247.0931072824858	-315.16997024401115	752.4059474502004	995.6991677748059	-297.4943457671425	786.2392827099497	808.7066330860907	-370.99191510268673	791.7529580262394	803.3241635743306	-385.2135728140938	782.8189621565687	796.1239873515435	-397.9779094445593	776.6780192248451	788.8745489178009	-405.85125669117474	771.6276148177967	780.9188221054529	-411.545989050531	794.1588926479112	794.1027268855747	-382.92163686392524	799.5847906278428	766.5892295000884	-397.19407450519174	794.7564902911228	751.2611318662368	-406.88913460475175	786.5451154920174	747.7834389077248	-412.5063006015554	776.2345210307349	748.9870655138833	-416.87889062499954	793.7805416168859	789.1623807404188	-379.65095443844064	798.8706030546692	759.6532174797619	-391.80281821912536	793.5236958437054	742.3693574160945	-401.90390870214543	783.5794046856817	737.9059717530455	-408.4513512565269	772.2794720847635	739.0928358065872	-413.124216419209	793.4637505300605	786.3152649164316	-376.97461993378835	798.0107779834658	757.2254484685138	-385.53778652639176	793.261391783783	741.6377482140115	-393.83407984702563	783.6220552990985	737.0547123588369	-399.8799118472547	772.9748587019922	738.0390532963544	-404.14577488460486	792.2405355931946	784.2945875428928	-373.4874688378989	795.9572367604737	756.1614501801997	-379.19167998665296	791.9947596175015	742.9907044554207	-385.00540305828406	784.886702228313	739.3146820345092	-389.0139338093027	775.4106611116771	739.9949246251539	-392.5618244865379	655.9727000592816	1260.6741416546142	-166.55367287574938	603.5957642758713	1213.465755402441	-73.18213352198114	699.1507202017513	1026.141009193613	-186.40040954610342	811.3557724913682	859.4425430789648	-292.1835668035424	797.9094656634794	858.5246018543683	-311.20649237245567	792.9686324691488	842.7541401225452	-339.556683825772	789.8375213590225	829.3177927243422	-359.000928518971	787.4921825342301	816.0173326265242	-374.9551151486499	796.7795495313565	850.2686063169305	-311.1646719029253	780.010267277771	824.4420572246642	-342.1661085381941	773.7160741674178	803.1339256389053	-367.56424145466974	773.802611904959	792.058745647656	-383.29117282523083	776.572115268984	784.3569533524325	-396.26580503332144	798.4610191815383	844.3350540504731	-309.4546461615669	783.0127368420323	815.9361067310584	-338.7664728577283	776.4274913704755	791.9813812514035	-366.1594714319891	776.6677000219993	778.2820910756806	-384.97919404636	779.7640592259029	769.6908763552308	-399.100806461791	800.0210072799625	840.8147432799614	-307.4207897682104	787.3669050962119	812.344846401053	-331.8232306332575	781.9413765521906	790.7915800717891	-355.32474033780204	782.339934634967	777.2194692960535	-373.27906834366354	785.3303748652909	768.9718861150349	-386.4627364841762	802.7451274246475	837.4056605588784	-304.45120192448616	792.6252976242399	809.2257933253813	-324.8960951025162	788.8265066141563	791.0388974865087	-343.025071517141	789.3812278101528	780.6905245208111	-355.78718106098694	792.1822121167958	773.126206868673	-367.2736298363979
137	0.567	921.0129	906.651	56.2195	985.3072100117076	885.7958026992338	-2.010108691655203	906.1062242334548	482.98858104353326	-82.7362493911574	916.1707933056468	104.79942028505396	-166.3769072936135	841.5272573318733	28.17928181971961	-7.986587022997533	865.0255004277694	898.8962778231629	126.06465671562363	803.7817062544931	496.0171753181569	222.8564273908682	753.6354853605831	64.83661230872664	295.6810589566914	623.324771478778	-12.752429733413397	179.50868868454145	881.779617197575	1034.5432022070365	5.794343603345738	833.479481890625	1102.8380184900159	-43.07539392018596	778.2606078866382	1168.317661865135	-96.20012911266053	718.5215218083835	1221.4508849441438	-150.6893758787788	654.1614064928982	1278.291921001915	-208.2286976612666	594.358207050745	1329.8999715860311	-259.694669056271	474.4646946039667	1422.8583785457338	-308.6108539088156	694.4916930461716	1258.557100047759	-210.5213347089271	745.2956757070959	1247.0647634190545	-314.71470813262636	752.0113598285164	996.1690365254381	-296.68345483176876	785.3751967234984	809.9084746496209	-369.9338471527979	790.9188634895019	804.7001670220732	-384.160008694713	782.0257580050484	797.5700268811054	-396.89609511925863	775.905224037419	790.3611682597125	-404.7500790657256	770.8649473866583	782.4322466692076	-410.4289364073193	793.2952325548171	795.4762059773777	-381.8731554438955	798.7068979849801	768.1473294817674	-396.14601262761505	793.8871753294334	752.8894376099474	-405.8223947517072	785.6989376880344	749.4157700238976	-411.41723609602735	775.4195036323167	750.5960158887565	-415.76414418481454	792.8963613735615	790.5043486458434	-378.60240500831463	797.96142892744	761.1582244011621	-390.7546342396327	792.621240653858	743.9461615231859	-400.8353089769706	782.7035990727841	739.4853161689449	-407.3558183500014	771.4371544088438	740.6454486182087	-412.00056059628025	792.5651847591334	787.6308300012736	-375.92619303685524	797.0766235840308	758.6658973516115	-384.490391349694	792.3304365027539	743.135562875966	-392.7688348203866	782.7153919855668	738.552222874675	-398.78866111279524	772.0990126363857	739.5101264189188	-403.02808519408427	791.3277145024032	785.5698513765107	-372.4376565232287	795.0021727464443	757.5284014521618	-378.14259220837346	791.0382708083628	744.3949344754617	-383.94196894293987	783.9460137987253	740.7144892968754	-387.9314981528387	774.4961557457484	741.3689034543386	-391.45594014980855	656.1179387239093	1260.9186193453922	-166.32739669733164	604.0792355957481	1214.0649207602544	-73.00740183189703	699.0146146674169	1027.6820884531278	-187.24797121200626	810.3212639676765	861.1695226317811	-292.53952212104275	796.8997356319846	860.3740465520758	-311.4974749881348	791.9742690010914	844.6712733039398	-339.7163922641266	788.8570776748336	831.2750035163264	-359.06511319823323	786.5260889837887	818.0019348927852	-374.93613034309294	795.7861987185893	852.1093150380025	-311.43906823849676	779.0805868839411	826.4073624247195	-342.2826849228931	772.8169663510146	805.157533173861	-367.54893431743415	772.9074086928874	794.0990838339976	-383.1973654414545	775.6699578939827	786.3979894852249	-396.1093804204944	797.4735421790612	846.1508871902267	-309.7222951592647	782.090549130514	817.8600277513763	-338.8765455252072	775.5392183931183	793.9651959761928	-366.12521968481695	775.7844034534905	780.2843094067133	-384.85005007632043	778.8732822523721	771.692974166535	-398.9030492686675	799.0362264442072	842.6100806242363	-307.68785976812563	786.4434918782215	814.2200556267592	-331.9490594360245	781.0479808458573	792.7150137823179	-355.32462150816673	781.4515942660778	779.1585439780515	-373.18731559420667	784.4351127390701	770.9098517210867	-386.30642484768055	801.7602505493933	839.1716810914724	-304.72087588641034	791.6972509779052	811.0479160656025	-325.0383358047492	787.9229485261477	792.8930915143535	-343.0668014654804	788.481562551238	782.5529437733052	-355.76224684016273	791.2765482442944	774.9858169497588	-367.1916077405954
